<svg width="13" height="13" viewBox="0 0 13 13" fill="none" xmlns="http://www.w3.org/2000/svg">
<path d="M8.66683 11.9169V9.82061C8.68715 9.56232 8.65225 9.30267 8.56446 9.05891C8.47667 8.81515 8.338 8.59288 8.15766 8.40686C9.8585 8.21727 11.646 7.57269 11.646 4.61519C11.6459 3.85893 11.355 3.13167 10.8335 2.58394C11.0804 1.9223 11.063 1.19096 10.7847 0.541857C10.7847 0.541857 10.1456 0.352273 8.66683 1.34352C7.42533 1.00705 6.11666 1.00705 4.87516 1.34352C3.39641 0.352273 2.75725 0.541857 2.75725 0.541857C2.47903 1.19096 2.46157 1.9223 2.7085 2.58394C2.18315 3.13574 1.89195 3.86957 1.896 4.63144C1.896 7.56727 3.6835 8.21186 5.38433 8.42311C5.20612 8.60726 5.06868 8.82687 4.98095 9.06765C4.89323 9.30842 4.85718 9.56497 4.87516 9.82061V11.9169M4.87516 10.2919C2.16683 11.1044 2.16683 8.93769 1.0835 8.66686L4.87516 10.2919Z" stroke="white" stroke-linecap="round" stroke-linejoin="round"/>
</svg>
