<svg width="50" height="50" viewBox="0 0 50 50" fill="none" xmlns="http://www.w3.org/2000/svg">
<path d="M33.3333 6.25H2.08325V33.3333H33.3333V6.25Z" stroke="#233BAA" stroke-width="4" stroke-linecap="round" stroke-linejoin="round"/>
<path d="M33.3333 16.6665H41.6666L47.9166 22.9165V33.3332H33.3333V16.6665Z" stroke="#233BAA" stroke-width="4" stroke-linecap="round" stroke-linejoin="round"/>
<path d="M11.4583 43.7502C14.3348 43.7502 16.6667 41.4183 16.6667 38.5418C16.6667 35.6653 14.3348 33.3335 11.4583 33.3335C8.58185 33.3335 6.25 35.6653 6.25 38.5418C6.25 41.4183 8.58185 43.7502 11.4583 43.7502Z" stroke="#233BAA" stroke-width="4" stroke-linecap="round" stroke-linejoin="round"/>
<path d="M38.5416 43.7502C41.4181 43.7502 43.7499 41.4183 43.7499 38.5418C43.7499 35.6653 41.4181 33.3335 38.5416 33.3335C35.6651 33.3335 33.3333 35.6653 33.3333 38.5418C33.3333 41.4183 35.6651 43.7502 38.5416 43.7502Z" stroke="#233BAA" stroke-width="4" stroke-linecap="round" stroke-linejoin="round"/>
</svg>
